<svg xmlns='http://www.w3.org/2000/svg' xmlns:xlink='http://www.w3.org/1999/xlink' viewBox="0 0 60.192000000000014 50.400000000000006"><path transform="translate(-5.040000000000001 50.400000000000006)" d="M40.68-26.28L50.04-44.64L52.78-44.64L52.78-50.40L40.82-50.40L40.82-44.64L43.49-44.64L37.44-32.47L31.18-44.71L31.32-44.64L33.98-44.64L33.98-50.40L21.67-50.40L21.67-44.64L24.26-44.64L33.77-26.21L29.02-16.99L14.33-16.99L14.33-34.85L16.99-34.85L16.99-40.61L5.04-40.61L5.04-34.85L7.70-34.85L7.70-16.99L5.04-16.99L5.04-11.23L26.06-11.23L23.26-5.76L20.59-5.76L20.59 0L32.54 0L32.54-5.76L29.88-5.76L37.01-19.87L38.52-16.99L36.86-16.99L33.98-11.23L41.47-11.23L44.28-5.69L44.14-5.76L41.47-5.76L41.47 0L53.78 0L53.78-5.76L51.19-5.76L40.68-26.28ZM59.26-16.99L46.73-16.99L49.68-11.23L65.23-11.23L65.23-20.88L59.26-20.88L59.26-16.99Z"/></svg>